<svg xmlns="http://www.w3.org/2000/svg" xmlns:xlink="http://www.w3.org/1999/xlink" version="1" width="128" height="128" id="svg2">
  <defs id="defs4">
    <linearGradient id="WhiteTransparent" gradientUnits="userSpaceOnUse">
      <stop offset="0" id="stop7" stop-color="#fff"/>
      <stop offset="1" id="stop9" stop-color="#fff" stop-opacity="0"/>
    </linearGradient>
    <linearGradient id="BlackTransparent" gradientUnits="userSpaceOnUse">
      <stop offset="0" id="stop12"/>
      <stop offset="1" id="stop14" stop-opacity="0"/>
    </linearGradient>
    <linearGradient id="liquidShade" xlink:href="#BlackTransparent" y1="128" x2="0" y2="64" gradientUnits="userSpaceOnUse"/>
    <linearGradient id="liquidSpecular" xlink:href="#WhiteTransparent" y1="128" x2="0" y2="76" gradientUnits="userSpaceOnUse"/>
    <linearGradient id="sideSpecular" xlink:href="#WhiteTransparent" x1="80" y1="20" x2="60" y2="40" gradientUnits="userSpaceOnUse"/>
    <linearGradient id="IcecapTip" xlink:href="#WhiteTransparent" x1="60" y1="20" x2="90" y2="50" gradientUnits="userSpaceOnUse"/>
    <linearGradient id="shinySpecular" xlink:href="#WhiteTransparent" x1="33" y1="35" x2="58" y2="60" gradientUnits="userSpaceOnUse"/>
    <clipPath id="clipoutline1">
      <path id="outline1" d="M54.1 12.5L12.9 54.7C-2.7 70.3 23 69 32.3 74.9c4.3 2.8-13.8 6.4-10.1 10.1 3.6 3.7 21.7 7.1 25.3 10.7 3.6 3.7-7.3 7.6-3.7 11.3 3.5 3.7 11.9.2 13.4 8.6 1.1 6.2 15.4 3.1 21.8-2.2 4-3.4-6.9-3.4-3.3-7.1 9-9.1 17-4.1 20.3-12.5 1.8-4.5-13.6-7.7-9.5-10.6 9.8-6.9 45.8-10.4 29.2-27L73 12.5c-5.3-5-14-5-18.9 0zm-9.9 64.7c.9 0 30.8 4 19.3 7.1-4.4 1.2-24.6-7.1-19.3-7.1zm57.2 16.6c0 2.1 16.3 3.3 15.4-.5-1.3-6.4-13.6-5.9-15.4.5zm-69.5 11.1c3.7 3.2 9.3-.7 11.1-5.2-3.6-4.7-16.9.3-11.1 5.2zm67.5-6.7c-4.6 4.2.8 8.6 5.3 5.7 1.2-.8-.1-4.7-5.3-5.7z"/>
    </clipPath>
    <filter id="ShadowBlur" filterUnits="userSpaceOnUse" x="0" y="0">
      <feGaussianBlur in="SourceAlpha" stdDeviation="3" result="blur" id="feGaussianBlur24"/>
    </filter>
  </defs>
  <style id="style26">
    .specularity {opacity:0.5;} .low-specularity {opacity:0.25;} .full-specularity {opacity:1;} .black {fill:#000000;} .white {fill:#ffffff;} .outline-big {stroke-width:16;stroke:none;opacity:0.1;fill:none;} .outline-small {stroke-width:8;stroke:none;opacity:0.2;fill:none;} .stroke-highlight {fill:none;stroke:none;opacity:0.2;} .base-shadow {fill:black;opacity:75;}
  </style>
  <g id="g28">
    <path filter="url(#ShadowBlur)" class="base-shadow" d="M8 62.9C5.5 72.3 23.4 74 32.3 77.6c2.2 1 1.2-3.2.1-4.2C25.2 69.8 10.2 69 8 62.9zm111.6 1c-2.7 8.9-25 13.1-33 17.8-2.1 1.2-3.2 6.3.4 4.3 9.6-5.3 35.8-10.7 32.6-22.1zM44.3 75.7c-3.3 0-5.3 1.6.6 3.7C52.6 80 63.7 83 66 84c3.8-6.5-21-8.3-21.7-8.3zm-21.1 8.5c-1.4-1.2-2.9 1-.9 2.8 3.5 3.8 22.6 7.9 26.3 11.5 1.8.9 1.2-2.5.1-3.6-3.4-3.4-20.5-7.3-25.5-10.7zm78.5 9.7c.2 3.5 15.8 7.6 15.2.1-.2-2.6-15.4-2.7-15.2-.1zm-6.1-.2c-3.4 7.1-11.3 2.5-19.8 11.1-2.3 1.7-1.3 6.2 1 3.8 8.7-8.2 16.4-3.7 19.4-12.6.2-1 0-1.6-.6-2.3zM31.5 106c4.5 5 9.8 1.8 11.5-5.7-.4-1.7-16.8.1-11.5 5.7zm67.2-5.8c-5.4 4.4 3.3 9.4 6 5.8 3.6-4.7-3.4-3.4-6-5.8zM43.5 105c-.9 1.2-.8 3 .3 4.2 3.6 3.6 12 .1 13.5 8.6 1.1 6.1 15.2 3.5 22-1.4 1.5-1.6 1.6-5.4-.3-4.4-29.8 13.4-10.8-3.8-35.5-7z" id="path30"/>
    <use class="outline-big" xlink:href="#outline1" id="use32"/>
    <use class="outline-small" xlink:href="#outline1" id="use34"/>
    <use class="black;" xlink:href="#outline1" id="use36"/>
    <use clip-path="url(#clipoutline1)" xlink:href="#outline1" class="stroke-highlight" id="use38"/>
    <use class="specularity" xlink:href="#outline1" id="use40" fill="url(#liquidSpecular)"/>
    <use class="low-specularity" xlink:href="#outline1" id="use42" fill="url(#sideSpecular)"/>
    <path class="specularity" d="M16.8 56.9c-11.1 11 8.4 7.9 23.4 13.8l31-54.5c-4.7-4.8-10.7-4.4-15 0L16.8 56.9z" id="path44" fill="url(#shinySpecular)"/>
    <path class="shade" d="M8.9 61.7c-2.6 9.4 13.4 9.2 22.3 12.7 1.5-.9 2.3-2 1.2-3-7.2-3.6-21.4-3.6-23.5-9.7zm111.1 1c-2.7 8.9-25.5 12.3-33.4 17-1.1 1.1-.4 2.1.9 3.1 9.8-4.9 35.7-8.7 32.5-20.1zm-75.7 11c-3.2 0-5.2 1.6.6 3.7 7.7.6 18.8 3.7 21.2 4.7 3.7-6.6-21-8.4-21.8-8.4zm-21.1 8.5c-1.3.9-2 1.9-.9 2.9 3.5 3.7 21.5 7.1 25.2 10.7.9-1.2 1.2-2.4.1-3.6-3.4-3.4-19.4-6.6-24.4-10zm79.8 9.1c-.7.8-1.3 1.7-1.5 2.7 0 2.1 15.4 3.4 15.4-.6-.3-.7-.6-1.4-1.2-2.1-2.8 1.6-9.7 1.2-12.7 0zm-7.4.4c-3.4 7.1-11.3 2.5-19.8 11.1-1.4 1.5-.6 2.3.7 3 8.7-8.2 16.7-2.9 19.7-11.8.2-.9 0-1.6-.6-2.3zm-54 7c-2.4 3.2-6.6 5.3-9.6 2.7-.3-.2-.5-.5-.7-.8-1.1 1.4-1.1 2.9.7 4.5 3.6 3.1 9.3-.8 11-5.2-.3-.5-.9-.9-1.4-1.2zm56.7 1c-2.3 3.7 2.3 6.7 6.4 4.4.6-.7.5-2.1-.6-3.5-2.4 1.2-4.7.5-5.8-.9zm-54.4 3.9c-.9 1.1-1.2 2.4-.1 3.6 3.6 3.6 12 .1 13.5 8.6 1.1 6.1 14.7 2.9 21.5-2 1.5-1.64.8-2.7-.5-3.5-7.1 4.8-20 7.7-21 1.9-1.5-8.5-9.8-5.1-13.4-8.6z" id="path46" fill="url(#liquidShade)"/>
    <path id="icecap" class="full-specularity" d="M70.5 15.5l16.3 16.6c1.5 1.5 1.5 4.6.6 5.5L79.3 31l-1.6 9.7-6.7-3.6L60.1 44l-3.6-14.5-5.8 12.6-14.5-.1c-2.8 0-2.4-2.9.5-5.8 5.7-6.3 16.8-17 20.3-20.7 3.6-3.7 9.9-3.6 13.5 0z" fill="url(#IcecapTip)"/>
  </g>
</svg>
